
<global>
amp_veltrack=0
ampeg_release=0.25
</global>

<group>
group_label=Group_0-42
lpc_hicc1=42
lpc_locc1=0

<region>
hikey=a3
hivel=127
lokey=g#3
loop_end=272870
loop_mode=loop_continuous
loop_start=104716
loop_xfade=36544
lovel=1
lpc=470IQldPgcJgdSFCcdCEwVFxHEFT2yjBrvpHQSI+EsH0o59AkCH6P5/TWMCgKV9A/h51wHRUekCkN0rAn55WPxK1lb/xbYI9IUSKvt8p1L9atMo+cvzKQP/Cv8CRhQdA
lpc_rms=-30.13
offset=9858
pitch_keycenter=a3
sample=Alto_trill_whole_PP_A3.opus
</region>

<region>
hikey=a4
hivel=127
lokey=g#4
loop_end=274675
loop_mode=loop_continuous
loop_start=105409
loop_xfade=36786
lovel=1
lpc=VRFKQr5/38KdaZdCNNzHwWdLxUFx3JzBOweAQbm9W8HZdXhAFnu8QH0kmcAjWTvAfr83wIBiRb9evRdBZUYbwFzGzz82iIK/vU6av3Qlgr+oEYq/yjGdQIu1BsE+eLZA
lpc_rms=-27.35
offset=16115
pitch_keycenter=a4
sample=Alto_trill_whole_PP_A4.opus
</region>

<region>
hikey=B5
hivel=127
lokey=g#5
loop_end=269600
loop_mode=loop_continuous
loop_start=103462
loop_xfade=36106
lovel=1
lpc=g28gQTSwmsE1bIxB+lwjwaK08kDp5+jAqoXvQELh18B578JA3emyv4yDE8BG7SdA5IISvyU1BT8HYhi/YlbHP6myvb+TYQC+koZ9QCRyn8C743hA7g/Pv5eseD+rWWW/
lpc_rms=-23.67
offset=5033
pitch_keycenter=A5
sample=Alto_trill_whole_PP_A5.opus
</region>

<region>
hikey=b3
hivel=127
lokey=a#3
loop_end=276009
loop_mode=loop_continuous
loop_start=105921
loop_xfade=36965
lovel=1
lpc=oysSQnP1icLAYz5CQmHzwdLdqEHbuC3BEgwKQREfMsGHVk5BEjgewNFqwcA+vw9B+VLgwEcB8z+JLjbATRYLQBoZkj/275a/g/mkv9AhRUBgPpzAU/qiQLV/Tr/h/hm/
lpc_rms=-29.00
offset=6087
pitch_keycenter=b3
sample=Alto_trill_whole_PP_B3.opus
</region>

<region>
hikey=b4
hivel=127
lokey=a#4
loop_end=280746
loop_mode=loop_continuous
loop_start=107739
loop_xfade=37599
lovel=1
lpc=/tjaQaOBccJ8KThCQq2YwTLFb0E/NCPB8qwYQB+RhsApi4NA/OxiQPDTl8BiIi5AhXr4vytLIr9RHAI/5ai0PytuDUCPKjPAVsOCProiYsAHMWNAxIj+Pk4xa79Yk0Y/
lpc_rms=-31.25
offset=6946
pitch_keycenter=b4
sample=Alto_trill_whole_PP_B4.opus
</region>

<region>
hivel=127
key=c#3
loop_end=276895
loop_mode=loop_continuous
loop_start=106261
loop_xfade=37083
lovel=1
lpc=d5uuQRaM2sENbSxBS/4bwY3glUAwfoXAmH+lQKYF2sAce9hAXy4gwOGEDUDdWI2/LNxAvxJKgT+udRXA2yDoP6n+5T7WeGs/24fAv0m9aT/xXZW/kBy3PwdWlj7kEA2/
lpc_rms=-29.22
offset=4198
sample=Alto_trill_whole_PP_C#3.opus
</region>

<region>
hikey=c#4
hivel=127
lokey=c4
loop_end=278465
loop_mode=loop_continuous
loop_start=106864
loop_xfade=37294
lovel=1
lpc=RWhhQr4IAMOO6slCuAIywiRs00FpoH7Bl6KrQFlBxsBjWUBBuGyTwBidZMBDRqZAL/BKwBimRECp0ubAbGYSQKrNYEC1hoHA7D1nQNZLdb+v9lLAmEkKQfTMAcFrLDVA
lpc_rms=-29.29
offset=6399
pitch_keycenter=c#4
sample=Alto_trill_whole_PP_C#4.opus
</region>

<region>
hikey=c#5
hivel=127
lokey=c5
loop_end=272088
loop_mode=loop_continuous
loop_start=104416
loop_xfade=36440
lovel=1
lpc=T/bpQdAemsLD0qBCLVErwmQloEE7YXrBNU4VQSCu+cDFEDBBJoh5wC93bMAPxl9A7bnjv7M6t78evp1A+rl7wBpYnUBlmMXA3WK8P0vyg0CwH8XAuBwDQStW+8DbGnRA
lpc_rms=-30.51
offset=625
pitch_keycenter=c#5
sample=Alto_trill_whole_PP_C#5.opus
</region>

<region>
hikey=d#3
hivel=127
lokey=d3
loop_end=277295
loop_mode=loop_continuous
loop_start=106414
loop_xfade=37137
lovel=1
lpc=r/cQQludbsIFCbFBG4LGwOUrQEGXqTXB2jYAQXpupsCCwwpBCYm+PWJd68CQjqlAEO5+wHJtrD+WT3jAYOHtQFtjOsC8mKm/RRORv6pUtT5FN5dAhgJvwNVODT/PWfQ9
lpc_rms=-30.78
offset=2890
pitch_keycenter=d#3
sample=Alto_trill_whole_PP_D#3.opus
</region>

<region>
hikey=d#4
hivel=127
lokey=d4
loop_end=271299
loop_mode=loop_continuous
loop_start=104114
loop_xfade=36334
lovel=1
lpc=8VAnQiZ9xcL4o6lCRdk8wkYEC0L9m7PB1bN+QSaxj8EbwW1Bi2iBwHXw4r+XljK/QjGTv0wKRECYaCtAMkgFwf9wp0BoSq4/fretvukUnL8o7Y/Aj4zsQLZ7iMB7i7s/
lpc_rms=-31.81
offset=4031
pitch_keycenter=d#4
sample=Alto_trill_whole_PP_D#4.opus
</region>

<region>
hikey=d#5
hivel=127
lokey=d5
loop_end=270878
loop_mode=loop_continuous
loop_start=103952
loop_xfade=36278
lovel=1
lpc=c4QyQmqDAMNhkiFDFMz0wkPnlUIePDXCF+3ZQaeCwsEx/+1Bw/trwVq7JMFCAk9BrUwmvx7SZcBHltlAfBAvwZd/+EBEGJdAOIJ7wfo0q0GHvMbBJpivQTi8H8EjHxxA
lpc_rms=-29.30
offset=184
pitch_keycenter=d#5
sample=Alto_trill_whole_PP_D#5.opus
</region>

<region>
hikey=f3
hivel=127
lokey=e3
loop_end=271636
loop_mode=loop_continuous
loop_start=104243
loop_xfade=36379
lovel=1
lpc=LEIiQvl7l8JDsPxB5eyfvsTtS0GoPXnBUsw5QbF8GcEuagRBrTCNPxsh9cBUlpxAM9G9v9neDcAIHsO/LBXDQOF7jj8EXaDA46IPwHTHgEBaV2lA//2SwEAZCcBRKy5A
lpc_rms=-29.90
pitch_keycenter=f3
sample=Alto_trill_whole_PP_F3.opus
</region>

<region>
hikey=f4
hivel=127
lokey=e4
loop_end=272063
loop_mode=loop_continuous
loop_start=104407
loop_xfade=36436
lovel=1
lpc=iy09QtsUrsJk0VdCz5AYwmveKELokt3BR9+RQXdJk8FtdiFBUBvIQB3u7cBUmyBBmSgawTnWMsANx6U/3Ei1QPmWl8D2Pl1AyNyAv6360b4XFMS/KGSxQAlNC8G/xqZA
lpc_rms=-27.25
offset=1696
pitch_keycenter=f4
sample=Alto_trill_whole_PP_F4.opus
</region>

<region>
hikey=f5
hivel=127
lokey=e5
loop_end=274504
loop_mode=loop_continuous
loop_start=105343
loop_xfade=36763
lovel=1
lpc=x/fDQcbWTcLQzS1CJk6mwaPyikGFRL3BRNO3QX92ZsFLPAtBVeJYP2BjocCZN3PA4k81QYh+mMDRkSa/xAO8vskACkBGMOE/SrCWwP4xwUB548bALTn6QBnUucAUAS9A
lpc_rms=-28.06
offset=387
pitch_keycenter=f5
sample=Alto_trill_whole_PP_F5.opus
</region>

<region>
hikey=g3
hivel=127
lokey=f#3
loop_end=277980
loop_mode=loop_continuous
loop_start=106677
loop_xfade=37229
lovel=1
lpc=lsIXQo2+gML7mbxBU4K0vx8k10C06SPB9XIxQWc5ycCeQrBA+/Ktv3CmUr70wmdAWXGxwFVI1j+PPEu/wNefP6tiF8AzTiBAbQc4wEinG78XOjk/zvyWQIxxUsDQ4LI+
lpc_rms=-30.39
offset=4119
pitch_keycenter=g3
sample=Alto_trill_whole_PP_G3.opus
</region>

<region>
hikey=g4
hivel=127
lokey=f#4
loop_end=256992
loop_mode=loop_continuous
loop_start=98623
loop_xfade=34418
lovel=1
lpc=X36CQnBWDcNkeNRCRYA+wq5510GQI2LAcRvtwAbu5cBmDBxBtst0QQ/fs8EYMY5BVIu/wcyaj0FA8RrBd3EPQZHlAsARwlPAbCLqP8Ls4T91gQDAu/PlQBK/gMGgOSBB
lpc_rms=-28.24
offset=2175
pitch_keycenter=g4
sample=Alto_trill_whole_PP_G4.opus
</region>

<region>
hikey=g5
hivel=127
lokey=f#5
loop_end=277687
loop_mode=loop_continuous
loop_start=106565
loop_xfade=37190
lovel=1
lpc=AX6+QXFQXMJ+ClRCeVG6wXOuf0DbEV2/ufzdQJIaTcGJ1GNBt/uqwCycQ8Afz15A+XEgP2ahs78gqidA8QoXv848BMA7+whAK3lxP4vayD+7OZLAfsePQHpUaL+iHxY+
lpc_rms=-25.93
offset=337
pitch_keycenter=g5
sample=Alto_trill_whole_PP_G5.opus
</region>
</group>

<group>
group_label=Group_43-84
lpc_hicc1=84
lpc_locc1=43

<region>
hikey=a3
hivel=127
lokey=g#3
loop_end=276071
loop_mode=loop_continuous
loop_start=105945
loop_xfade=36973
lovel=1
lpc=XXfuQVPEg8JyYEJC6L2WwZ19R0HRVjXBpPQyQXsE+8AWsBdAzVRWPzKIbsAy+G1AF+IrwKWShEAzMgPASvGGv52FRT9xmqi/1HWTvvIs+j7XCzE+vEhjQCJfgMDHT6M/
lpc_rms=-23.20
offset=4032
pitch_keycenter=a3
sample=Alto_trill_whole_MF_A3.opus
</region>

<region>
hikey=a4
hivel=127
lokey=g#4
loop_end=281749
loop_mode=loop_continuous
loop_start=108124
loop_xfade=37733
lovel=1
lpc=s6ypQdwHa8KbHI5Ctstjwo/WIUKMmuvB3lXIQcSxv8HUEJNB9waEwD2W3sA9ZfRAoWOVwAqUrD8lpf0/u+9swNiurj+B0VRARmeHvwQfW8AOmoi9X4KtQDQ7rcBjYg1A
lpc_rms=-18.95
offset=6790
pitch_keycenter=a4
sample=Alto_trill_whole_MF_A4.opus
</region>

<region>
hikey=B5
hivel=127
lokey=g#5
loop_end=243469
loop_mode=loop_continuous
loop_start=93434
loop_xfade=32607
lovel=1
lpc=6RATQQpSl8HNgqVBBSV+wSL3LUF4aZzAap+EP6HjwL4eEB9A7mV4v4B3nL8sPB5AkcG7vz8BtD/C7qu/ITvBP9wTkr7Wx+U+mTbsPhvco75C+Du+dPiyP+H2LL+gIBC+
lpc_rms=-21.55
pitch_keycenter=A5
sample=Alto_trill_whole_MF_A5.opus
</region>

<region>
hikey=b3
hivel=127
lokey=a#3
loop_end=278153
loop_mode=loop_continuous
loop_start=106744
loop_xfade=37252
lovel=1
lpc=0vPUQTO2c8KCoEVCIVmqwTOha0FgRIHB0oNJQUMCJcHQO/NAIFlFP0qvj8ABR9U/NrlZP9mF0T7M8pPA/YrWQHHK4cDKXbhAxPyLwO6aCUCh4A6/SY6AQKD1UcCyHho+
lpc_rms=-22.26
offset=3856
pitch_keycenter=b3
sample=Alto_trill_whole_MF_B3.opus
</region>

<region>
hikey=b4
hivel=127
lokey=a#4
loop_end=274892
loop_mode=loop_continuous
loop_start=105492
loop_xfade=36815
lovel=1
lpc=7oNPQX1ADsIOnzVC+pwYwlLCx0Ge3EHBHz08QO+LE7/wGX8/F8CCP+BDXcAKDLlABQbYwFJNlUCYlQnAD1yoP9h4qr6NvaY+bCR3v3tKhz6xJjq9pOHGPzHoCMDWspw/
lpc_rms=-22.49
offset=4336
pitch_keycenter=b4
sample=Alto_trill_whole_MF_B4.opus
</region>

<region>
hivel=127
key=c#3
loop_end=278229
loop_mode=loop_continuous
loop_start=106773
loop_xfade=37262
lovel=1
lpc=soi9QVA4ZcK60kpCpNDIwTbickHgWiXB21K+QOZrIMEJhmNBxYvvwA01AkC7VwnAaRIev/CY4T6sZaU/tqlsP2wVA8DlviM/ydw4vwTBF0D/Mau+TPyhP58EtMBePlFA
lpc_rms=-19.84
offset=3708
sample=Alto_trill_whole_MF_C#3.opus
</region>

<region>
hikey=c#4
hivel=127
lokey=c4
loop_end=276835
loop_mode=loop_continuous
loop_start=106238
loop_xfade=37075
lovel=1
lpc=I3SmQZw1XsKOr3pCuV8mwupVoUHfhBTBZciJQLg2gMBKHJJA7NOJvRb+xcAfUCNBjmopwRt8+ECebY3AlAdAQBjg7L8MR1vA0n/VQNFeiMAZRTU/pW53QGUOnMDkvOk/
lpc_rms=-21.60
offset=4081
pitch_keycenter=c#4
sample=Alto_trill_whole_MF_C#4.opus
</region>

<region>
hikey=c#5
hivel=127
lokey=c5
loop_end=268398
loop_mode=loop_continuous
loop_start=103000
loop_xfade=35946
lovel=1
lpc=GK/AQAPfT8GZeGlBIxU/wT6jCUFEA6fAZDooQFaJ2L/QH6o+xVsmQLA6jcBc6pBAi8NtwOVnG0As3CO/MUoOv+weBEBMdUXAmAMgQBZ4sr2Z1wLAMYIzQLiN67+VEmo/
lpc_rms=-22.69
offset=222
pitch_keycenter=c#5
sample=Alto_trill_whole_MF_C#5.opus
</region>

<region>
hikey=d#3
hivel=127
lokey=d3
loop_end=275090
loop_mode=loop_continuous
loop_start=105569
loop_xfade=36842
lovel=1
lpc=mh/FQYhdh8JjNZBC+MQZwnzwW0GWTQzBRMAEQV4cD8HlEkRBZzb3wJwImcCKglJBEt5jwZIKKUHZw+3AqW0kQRYyacHx+hZBYZhlP+7d8r84Bwm/8mNcvpdaRr8khXc/
lpc_rms=-19.88
offset=5762
pitch_keycenter=d#3
sample=Alto_trill_whole_MF_D#3.opus
</region>

<region>
hikey=d#4
hivel=127
lokey=d4
loop_end=270354
loop_mode=loop_continuous
loop_start=103751
loop_xfade=36207
lovel=1
lpc=deGeQU4uVcI4+nVCA/Q6wgPQ/EERYJvBguU/QQpUUsHAVXRBDg4Vwfy8DT8WpnxA5MyxwNrYvUAjuhvA6qAGwLmazb6uoilA92MEP5KYMz47novAYSHEQBj3jMCIVcc/
lpc_rms=-26.91
offset=1079
pitch_keycenter=d#4
sample=Alto_trill_whole_MF_D#4.opus
</region>

<region>
hikey=d#5
hivel=127
lokey=d5
loop_end=278630
loop_mode=loop_continuous
loop_start=106927
loop_xfade=37316
lovel=1
lpc=bznhQJLwd8GlP45BGGZnwUvCG0HmGpzAuH22P684fr9+eShAti3yv6izI7+mPzFA4JI4wIBeSUDeN2jAw79wQKy/G8Buc1A/a6BAP8eUy78Souc/9A/2vgPv/L5vAFc/
lpc_rms=-23.11
offset=5491
pitch_keycenter=d#5
sample=Alto_trill_whole_MF_D#5.opus
</region>

<region>
hikey=f3
hivel=127
lokey=e3
loop_end=274230
loop_mode=loop_continuous
loop_start=105238
loop_xfade=36727
lovel=1
lpc=CuTsQS3ViMKHDElCWhh7wS8WbEGXWpvBhnuQQbDOocEQ95ZBJ83awHHeD8AwGjdA2u1qwFctLEAUGgrAb0T7QFapOMHcSsZAg1tLwIGFn0D1ZXe/+ZKrPw9LysBImF1A
lpc_rms=-19.81
offset=5353
pitch_keycenter=f3
sample=Alto_trill_whole_MF_F3.opus
</region>

<region>
hikey=f4
hivel=127
lokey=e4
loop_end=277065
loop_mode=loop_continuous
loop_start=106326
loop_xfade=37106
lovel=1
lpc=J+zpQULPmcLOkqlCdetgwtS88UGEwmbBSDXDQIFXLsEFDDFBpc+sQBZhi8EcgYxBZhdcwdxBPEF/qTLBQxqvQOoCtj/2Z3vACkN9QNl2vr0XFd7Ay70TQbDPhcDClCI/
lpc_rms=-18.24
offset=1931
pitch_keycenter=f4
sample=Alto_trill_whole_MF_F4.opus
</region>

<region>
hikey=f5
hivel=127
lokey=e5
loop_end=273654
loop_mode=loop_continuous
loop_start=105017
loop_xfade=36649
lovel=1
lpc=sTJDQT1Jv8Fsmr5B8YOIwW0RXkEoP0bBftYBQXuOzr+mX6S/+Vw0QMCDYcCXKS1A5e4tv0kgvz+GNdS/wObNPzHJED8t8SS/uDGLPzoKhL9v0kE/302dP1W1EMBlbdY/
lpc_rms=-21.10
pitch_keycenter=f5
sample=Alto_trill_whole_MF_F5.opus
</region>

<region>
hikey=g3
hivel=127
lokey=f#3
loop_end=272187
loop_mode=loop_continuous
loop_start=104454
loop_xfade=36453
lovel=1
lpc=8EIQQgJbqMJTHXZCEQ6GwVxKZ0Fff6TBCgWWQVEzk8EldTFBSzTGP4PexcCBYwVBuHsMwSHTq0ALK3fAgmxeQH3TusB11PBAL2OpwI7WCMD4YwJBxc+Wv7J1lsBTdec/
lpc_rms=-20.88
offset=3907
pitch_keycenter=g3
sample=Alto_trill_whole_MF_G3.opus
</region>

<region>
hikey=g4
hivel=127
lokey=f#4
loop_end=273533
loop_mode=loop_continuous
loop_start=104971
loop_xfade=36633
lovel=1
lpc=RT+8QQuThMJvrK1CM/6cwk1LckIe9CfCu+LSQSbjoMEN0zlBZcQYQTHt3sFfqgNChH7kwcrpqkFJVWXB1fsWQTS4zsBWuL68MNQOQcdeQMGYXgxBSkqjwHIbIUCdPGW+
lpc_rms=-19.08
offset=1571
pitch_keycenter=g4
sample=Alto_trill_whole_MF_G4.opus
</region>

<region>
hikey=g5
hivel=127
lokey=f#5
loop_end=273769
loop_mode=loop_continuous
loop_start=105061
loop_xfade=36665
lovel=1
lpc=SeqVQfIQI8ICSRJCrnVfwRFagb9pRJlAsGuTP3oLLMGTvZFB7r44wUUq5L9HlOJAdFmhv7yhccByqptAcF7mvZyljsBaT55AyonSPpRyX8DFTzFA3yThPwggRsDQhMA/
lpc_rms=-19.64
pitch_keycenter=g5
sample=Alto_trill_whole_MF_G5.opus
</region>
</group>

<group>
group_label=Group_85-127
lpc_hicc1=127
lpc_locc1=85

<region>
hikey=a3
hivel=127
lokey=g#3
loop_end=281556
loop_mode=loop_continuous
loop_start=108050
loop_xfade=37708
lovel=1
lpc=h9xIQbdZ+MHOV/xBHJqKwfCynUDaIcW/nm2CQPkRDMGtTDJBYCjXwPrUBb9u8I5As5FVwBP4W70MPVdA07CWwFaKbEBmmHzA+QkxQN0Iyj+EjGDAsHcPQCpR6b4aPxi+
lpc_rms=-20.07
offset=6223
pitch_keycenter=a3
sample=Alto_trill_whole_FF_A3.opus
</region>

<region>
hikey=a4
hivel=127
lokey=g#4
loop_end=268482
loop_mode=loop_continuous
loop_start=103032
loop_xfade=35957
lovel=1
lpc=5v8YQT7krsEGv6xBjVaDwUrHZkGf4T7BPXgCQekD0MDskeFAVB+UwDJd9D1dDzpAuVJgwATLMkDYiBHAXcSJP+MYfD+zz6C/e4MSQJLnisB5j3FAKivkv3wLkj6VG4c+
lpc_rms=-13.60
offset=3409
pitch_keycenter=a4
sample=Alto_trill_whole_FF_A4.opus
</region>

<region>
hikey=B5
hivel=127
lokey=g#5
loop_end=252892
loop_mode=loop_continuous
loop_start=97050
loop_xfade=33869
lovel=1
lpc=9KbRQIQhUsHOnFhBypwPwRsUxEAjRYbAz4xcQAzDW8D8zp1AJX1nwNCmuD/Ln1K+BjmHPwrOO78VVk4/O4EhvoOosz0oCwC+JT3BP7iRr7/C7Ac/OJ6oPm0W1j4j5AO/
lpc_rms=-20.27
offset=10425
pitch_keycenter=A5
sample=Alto_trill_whole_FF_A5.opus
</region>

<region>
hikey=b3
hivel=127
lokey=a#3
loop_end=282061
loop_mode=loop_continuous
loop_start=108244
loop_xfade=37775
lovel=1
lpc=8Bh0QZPxFsIxXRtCDAy4wbh5KEFKjQvBR4I1QduNXcHaOjhBOJMCwFRgzMA/w9lAlXJGvm2Mj8BsDDtA5ddMv7nfsD+y0BPAn06VP2UYoL/puwhAxUs/P/DpJcBvO5E/
lpc_rms=-19.55
offset=5405
pitch_keycenter=b3
sample=Alto_trill_whole_FF_B3.opus
</region>

<region>
hikey=b4
hivel=127
lokey=a#4
loop_end=266614
loop_mode=loop_continuous
loop_start=102316
loop_xfade=35706
lovel=1
lpc=QbWiQB9zI8HAlBhB0U/kwAEfsUDaU3HAgvEqQJvUN8AUQztAISPyvwDlJz/FHG8//d3vv0Eh4T9dPoO/YejuPY7W8j5ibJ48QEFPvhR9Oz69Ej+/qXBXP4+dp77V3mM+
lpc_rms=-16.38
offset=1327
pitch_keycenter=b4
sample=Alto_trill_whole_FF_B4.opus
</region>

<region>
hivel=127
key=c#3
loop_end=277696
loop_mode=loop_continuous
loop_start=106569
loop_xfade=37191
lovel=1
lpc=z9JfQaahD8IBLxtCouDRwUvchEEsH1XBoCk0QV6rLsHZY0ZBA0EWwVZDX0CHtwA/3yBPwJuRm0B0C7vAZNmuQPfMocAggtNAKwCzwA67wT/LewY/+YF2P/uC1b8rgNg+
lpc_rms=-15.17
offset=4486
sample=Alto_trill_whole_FF_C#3.opus
</region>

<region>
hikey=c#4
hivel=127
lokey=c4
loop_end=278410
loop_mode=loop_continuous
loop_start=106843
loop_xfade=37286
lovel=1
lpc=qGc+QfCs8cHXFAtCX5/LwcJCYUGMSxPBdHYuQVn5dsFOvXNBdqL/wEwviz8/4l8/bZYyP7JEvb84AxW99bjmP7fBFMBnwnM/3irIPc8unr/5hhhAA6nIvpEnub/GWWU/
lpc_rms=-18.90
offset=2379
pitch_keycenter=c#4
sample=Alto_trill_whole_FF_C#4.opus
</region>

<region>
hikey=c#5
hivel=127
lokey=c5
loop_end=280000
loop_mode=loop_continuous
loop_start=107453
loop_xfade=37499
lovel=1
lpc=2wh1QPFs3sChR9ZAT+eswK1Lp0AwHZrADCqEQE/yjsC7hI5AxYE0wH6WlD/ZgO++n7TJPavBgT+Q4Ou/v/nuP1SGl795U2I/4AsCv/x/Fz/B7jS/9kM+PxJpor42aYY+
lpc_rms=-17.01
offset=121
pitch_keycenter=c#5
sample=Alto_trill_whole_FF_C#5.opus
</region>

<region>
hikey=d#3
hivel=127
lokey=d3
loop_end=276203
loop_mode=loop_continuous
loop_start=105995
loop_xfade=36991
lovel=1
lpc=ZnqmQSPUZcKZDoFCbTgfwhV6iUE3mRnBp7clQZhYZsHoqIZBV4HvwDz/CsFwKYlBwfR4warvF0FInbrA8Vi/QEk2qcCnJfS9LynSQGxutsCEttw/nUtnviKcyL7hMHo+
lpc_rms=-17.52
offset=7508
pitch_keycenter=d#3
sample=Alto_trill_whole_FF_D#3.opus
</region>

<region>
hikey=d#4
hivel=127
lokey=d4
loop_end=280757
loop_mode=loop_continuous
loop_start=107743
loop_xfade=37601
lovel=1
lpc=kAoCQdCMo8E0db5BgSKYwd8KXkE0+jHBxlQhQT8JPMHsSlVBiVkYwTydHUCFoB5AURWMwDcookAUupTAd8eUQKAh5MChnvdAw1ijwAmfY0D63lbATLwfQKwphL84RYc+
lpc_rms=-20.54
offset=6637
pitch_keycenter=d#4
sample=Alto_trill_whole_FF_D#4.opus
</region>

<region>
hikey=d#5
hivel=127
lokey=d5
loop_end=271431
loop_mode=loop_continuous
loop_start=104164
loop_xfade=36352
lovel=1
lpc=4N9sQE4638AI8utAHR+rwO7LTUCbDXu/YkKbvtZGLr2cgPQ/uPAowH7zAkAPXoa/4tGGPifvID8+Z22/+sxJPyPK+j5U+J2/Gr64P3snLb/aShU+LrghP8RaUr822yw/
lpc_rms=-17.11
offset=251
pitch_keycenter=d#5
sample=Alto_trill_whole_FF_D#5.opus
</region>

<region>
hikey=f3
hivel=127
lokey=e3
loop_end=272241
loop_mode=loop_continuous
loop_start=104475
loop_xfade=36460
lovel=1
lpc=cbikQZccUcI7HlZCa/gGwsKYn0EsD0bBfiD6QFmDKsHXLm9BZC/ewGIk18BxcW5BhD9owVY76kCERgjAdbnsP5b2FMCc7ek64MNuPyDJDkDdYK6+6AE8wF5Xrj8Go2C9
lpc_rms=-16.55
offset=5204
pitch_keycenter=f3
sample=Alto_trill_whole_FF_F3.opus
</region>

<region>
hikey=f4
hivel=127
lokey=e4
loop_end=277208
loop_mode=loop_continuous
loop_start=106381
loop_xfade=37125
lovel=1
lpc=F6hQQSVlCMKERixC7nAYwnez1EEsj2HBHzfjQIBOPMG9hZ5B2qiXwUmqH0FUMVk+J6jRwNtM8kC3eJbAMwrBPyeKF8AC0HxAWB3xvxkF4b7TJOY/O8gYwBw2B0CD+im/
lpc_rms=-14.89
offset=2482
pitch_keycenter=f4
sample=Alto_trill_whole_FF_F4.opus
</region>

<region>
hikey=f5
hivel=127
lokey=e5
loop_end=279626
loop_mode=loop_continuous
loop_start=107309
loop_xfade=37449
lovel=1
lpc=tcMAQfPlecF2jYpBTvJawZpLKUFTjvzAKn69QPh/o8Bt9r1AhU6twL8vWUBrVK2/9+SfP1T+Jr8576c+ZExgPxvsMD/b3fK/OO48QJiz+L+qACs/N8arP6dz2r9+y4I/
lpc_rms=-17.91
offset=175
pitch_keycenter=f5
sample=Alto_trill_whole_FF_F5.opus
</region>

<region>
hikey=g3
hivel=127
lokey=f#3
loop_end=276378
loop_mode=loop_continuous
loop_start=106063
loop_xfade=37014
lovel=1
lpc=VjOJQSZdMsLaMUpC5ukTwpGLuEHJ94DBxVpkQSpqj8GHJalBnWRfwc7ElD86cQRBTTItwbzqGkFJI9jA6pRiQO4PsMCh+RlBTVoewbRE3UAneh3AhsCEv+7/N0CCs+e/
lpc_rms=-16.32
offset=4397
pitch_keycenter=g3
sample=Alto_trill_whole_FF_G3.opus
</region>

<region>
hikey=g4
hivel=127
lokey=f#4
loop_end=271670
loop_mode=loop_continuous
loop_start=104256
loop_xfade=36384
lovel=1
lpc=/JJyQaq9HMJStC1CUaD9wR78uEHJtK/BTD7OQWEG88FG7d9BNBKIwb+30UBJrmy/VJXDP9VZjsAn9WhA0jcav+iHFMCWy3RAy72qv5BfU8BTO4FAUK4yvvEi779gPzg/
lpc_rms=-14.13
offset=2727
pitch_keycenter=g4
sample=Alto_trill_whole_FF_G4.opus
</region>

<region>
hikey=g5
hivel=127
lokey=f#5
loop_end=281566
loop_mode=loop_continuous
loop_start=108054
loop_xfade=37709
lovel=1
lpc=fzInQfCzpcHR2pVBPxEAwYliAT9BJ4RAC4fRwOEQ20A8z56+3suLwB5FQ0DfKL0/VMolwKLqNkBG3UzAIf6uQD6NZ8AjdnI9bWoeQPfPar+O4CM+z6+1vgQhtD9REzW+
lpc_rms=-17.39
offset=3131
pitch_keycenter=g5
sample=Alto_trill_whole_FF_G5.opus
</region>
</group>